# xmcd
#
# Track frame offsets:
# 150
# 33195
# 61735
# 94517
# 120687
# 144627
# 180407
# 207522
# 242075
# 272142
# 298945
#
# Disc length: 4343 seconds
#
#
# Revision: 0
# Processed by: cddbd v1.5.1PL0 Copyright (c) Steve Scherf et al.
# Submitted via: FreeRIP 2.90 
#
DISCID=a010f50b
DTITLE=Talat Aziz - Dhadkan
DYEAR=1993
DGENRE=Ghazal
TTITLE0=Kuchh door hamare saath chalo
TTITLE1=Patthar ke jigar walo
TTITLE2=Pyar hi manga maine
TTITLE3=AAj vo aise be nakab huye
TTITLE4=Mohabbat ki bate
TTITLE5=Anken hi nahi
TTITLE6=Maine to kuchh na samaza
TTITLE7=Tuzse Milne ki saza
TTITLE8=Kuchh mithe lamhe
TTITLE9=Saara aalam zoom uthega
TTITLE10=Jab bahar aayee
EXTD=
EXTT0=Ibrahim Ashk
EXTT1=Bashir Badr
EXTT2=Ibrahim Ashk
EXTT3=Ibrahim Ashk
EXTT4=Ibrahim Ashk
EXTT5=Ibrahim Ashk
EXTT6=Ibrahim Ashk
EXTT7=Danish Aligarhi
EXTT8=Ibrahim Ashk
EXTT9=Ibrahim Ashk
EXTT10=Ayyoob Roomani
PLAYORDER=
